<svg width="18" height="21" viewBox="0 0 18 21" fill="none" xmlns="http://www.w3.org/2000/svg">
<path d="M4 5.5C4 2.76562 6.26562 0.5 9 0.5C11.7734 0.5 14 2.76562 14 5.5H17.75V17.375C17.75 19.1328 16.3828 20.5 14.625 20.5H3.375C1.65625 20.5 0.25 19.1328 0.25 17.375V5.5H4ZM9 2.375C7.28125 2.375 5.875 3.78125 5.875 5.5H12.125C12.125 3.78125 10.7578 2.375 9 2.375ZM2.125 17.375C2.125 18.0781 2.71094 18.625 3.375 18.625H14.625C15.3281 18.625 15.875 18.0781 15.875 17.375V7.375H14V8.9375C14 9.48438 13.6094 9.875 13.0625 9.875C12.5547 9.875 12.125 9.48438 12.125 8.9375V7.375H5.875V8.9375C5.875 9.48438 5.48438 9.875 4.9375 9.875C4.42969 9.875 4 9.48438 4 8.9375V7.375H2.125V17.375Z" fill="#817979"/>
</svg>
