<svg width="8" height="9" viewBox="0 0 8 9" fill="none" xmlns="http://www.w3.org/2000/svg">
<path d="M2.89844 4.5L0.367188 1.99219C0.226562 1.85156 0.226562 1.59375 0.367188 1.45312L0.953125 0.867188C1.09375 0.726562 1.35156 0.726562 1.49219 0.867188L4 3.39844L6.53125 0.867188C6.67188 0.726562 6.92969 0.726562 7.07031 0.867188L7.65625 1.45312C7.79688 1.59375 7.79688 1.85156 7.65625 1.99219L5.125 4.5L7.65625 7.03125C7.79688 7.17188 7.79688 7.42969 7.65625 7.57031L7.07031 8.15625C6.92969 8.29688 6.67188 8.29688 6.53125 8.15625L4 5.625L1.49219 8.15625C1.35156 8.29688 1.09375 8.29688 0.953125 8.15625L0.367188 7.57031C0.226562 7.42969 0.226562 7.17188 0.367188 7.03125L2.89844 4.5Z" fill="black"/>
</svg>
