<svg width="16" height="16" viewBox="0 0 16 16" fill="none" xmlns="http://www.w3.org/2000/svg">
<path d="M9.54688 8L14.375 3.21875L15.3594 2.23438C15.5 2.09375 15.5 1.85938 15.3594 1.67188L14.3281 0.640625C14.1406 0.5 13.9062 0.5 13.7656 0.640625L8 6.45312L2.1875 0.640625C2.04688 0.5 1.8125 0.5 1.625 0.640625L0.59375 1.67188C0.453125 1.85938 0.453125 2.09375 0.59375 2.23438L6.40625 8L0.59375 13.8125C0.453125 13.9531 0.453125 14.1875 0.59375 14.375L1.625 15.4062C1.8125 15.5469 2.04688 15.5469 2.1875 15.4062L8 9.59375L12.7812 14.4219L13.7656 15.4062C13.9062 15.5469 14.1406 15.5469 14.3281 15.4062L15.3594 14.375C15.5 14.1875 15.5 13.9531 15.3594 13.8125L9.54688 8Z" fill="#C4C4C4"/>
</svg>
