<svg width="22" height="17" viewBox="0 0 22 17" fill="none" xmlns="http://www.w3.org/2000/svg">
<path d="M1.08594 7.96875L9.76953 0.832031C10.0508 0.585938 10.6133 0.410156 11 0.410156C11.4219 0.410156 11.9844 0.585938 12.2656 0.832031L20.9492 7.96875C21.0547 8.07422 21.125 8.25 21.125 8.39062C21.125 8.49609 21.0898 8.67188 21.0195 8.74219L20.6328 9.19922C20.5625 9.30469 20.3516 9.375 20.2109 9.375C20.1055 9.375 19.9297 9.33984 19.8594 9.26953L18.875 8.46094V15C18.875 15.6328 18.3828 16.125 17.75 16.125H13.25C12.6523 16.125 12.1602 15.6328 12.125 15V11.3438H9.875V15C9.875 15.6328 9.38281 16.125 8.75 16.125H4.25C3.65234 16.125 3.16016 15.6328 3.125 15.0352V8.46094L2.17578 9.26953C2.10547 9.33984 1.92969 9.41016 1.82422 9.41016C1.68359 9.41016 1.47266 9.30469 1.36719 9.19922L1.01562 8.74219C0.945312 8.67188 0.875 8.49609 0.875 8.39062C0.875 8.25 0.980469 8.07422 1.08594 7.96875ZM4.84766 14.4375H8.1875V10.7812C8.22266 10.1836 8.71484 9.69141 9.3125 9.65625H12.6875C13.3203 9.69141 13.8125 10.1836 13.8125 10.7812V14.4375H17.1875V7.08984L11 1.99219L4.8125 7.08984L4.84766 14.4375Z" fill="#33722e"/>
</svg>
