<svg width="12" height="13" viewBox="0 0 12 13" fill="none" xmlns="http://www.w3.org/2000/svg">
<path d="M0.421875 4.36719C0.445312 4.34375 0.75 4.10938 1.125 3.78125V2.75C1.125 2.14062 1.64062 1.625 2.25 1.625H3.82031C4.33594 1.17969 5.13281 0.5 6 0.5C6.89062 0.5 7.66406 1.17969 8.20312 1.625H9.75C10.3828 1.625 10.875 2.14062 10.875 2.75V3.78125C11.2734 4.10938 11.5781 4.34375 11.6016 4.36719C11.8359 4.55469 12 4.92969 12 5.23438V11.375C12 12.0078 11.5078 12.5 10.875 12.5H1.125C0.515625 12.5 0 12.0078 0 11.375V5.23438C0 4.90625 0.164062 4.57812 0.421875 4.36719ZM9.75 2.75H2.25V6.42969C3.11719 7.10938 4.10156 7.92969 4.28906 8.07031C4.71094 8.42188 5.46094 9.125 6 9.125C6.5625 9.125 7.3125 8.39844 7.73438 8.07031C7.92188 7.92969 8.90625 7.10938 9.75 6.42969V2.75ZM1.125 11.2344C1.125 11.3281 1.19531 11.375 1.26562 11.375H10.7344C10.8281 11.375 10.875 11.3281 10.875 11.2344V6.96875C9.98438 7.71875 8.64844 8.79688 8.4375 8.96094C7.92188 9.35938 7.03125 10.25 6 10.25C4.99219 10.25 4.125 9.38281 3.58594 8.96094C3.375 8.77344 2.03906 7.69531 1.125 6.96875V11.2344ZM7.875 5H4.125C3.9375 5 3.75 4.83594 3.75 4.625V4.25C3.75 4.0625 3.9375 3.875 4.125 3.875H7.875C8.08594 3.875 8.25 4.0625 8.25 4.25V4.625C8.25 4.83594 8.08594 5 7.875 5ZM3.75 6.5V6.125C3.75 5.9375 3.9375 5.75 4.125 5.75H7.875C8.08594 5.75 8.25 5.9375 8.25 6.125V6.5C8.25 6.71094 8.08594 6.875 7.875 6.875H4.125C3.9375 6.875 3.75 6.71094 3.75 6.5Z" fill="black"/>
</svg>
