<svg width="13" height="13" viewBox="0 0 13 13" fill="none" xmlns="http://www.w3.org/2000/svg">
<path d="M0.84375 1.03906L3.04688 0.546875C3.5625 0.429688 4.07812 0.6875 4.26562 1.15625L5.29688 3.54688C5.48438 3.96875 5.36719 4.48438 4.99219 4.78906L4.05469 5.5625C4.71094 6.78125 5.74219 7.78906 6.96094 8.46875L7.73438 7.53125C8.03906 7.15625 8.55469 7.03906 8.97656 7.22656L11.3672 8.23438C11.8359 8.44531 12.0938 8.96094 11.9766 9.47656L11.4844 11.6797C11.3672 12.1719 10.9219 12.5 10.4297 12.5C4.6875 12.5 0 7.85938 0 2.09375C0 1.60156 0.351562 1.15625 0.84375 1.03906ZM10.3828 11.375L10.875 9.26562L8.57812 8.28125L7.26562 9.875C4.94531 8.77344 3.75 7.57812 2.64844 5.25781L4.24219 3.94531L3.25781 1.64844L1.125 2.14062C1.14844 7.22656 5.29688 11.3516 10.3828 11.375Z" fill="black"/>
</svg>
