<svg width="20" height="21" viewBox="0 0 20 21" fill="none" xmlns="http://www.w3.org/2000/svg">
<path d="M0.15625 18.8203L4.88281 14.0938C5 14.0156 5.11719 13.9375 5.23438 13.9375H5.74219C4.53125 12.5312 3.75 10.6562 3.75 8.625C3.75 4.17188 7.42188 0.5 11.875 0.5C16.3672 0.5 20 4.17188 20 8.625C20 13.1172 16.3672 16.75 11.875 16.75C9.84375 16.75 8.00781 16.0078 6.5625 14.7969V15.3047C6.5625 15.4219 6.52344 15.5391 6.44531 15.6562L1.71875 20.3828C1.52344 20.5781 1.21094 20.5781 1.05469 20.3828L0.15625 19.4844C-0.0390625 19.3281 -0.0390625 19.0156 0.15625 18.8203ZM11.875 14.875C15.3516 14.875 18.125 12.1016 18.125 8.625C18.125 5.1875 15.3516 2.375 11.875 2.375C8.4375 2.375 5.625 5.1875 5.625 8.625C5.625 12.1016 8.4375 14.875 11.875 14.875Z" fill="white"/>
</svg>
