<svg width="18" height="21" viewBox="0 0 18 21" fill="none" xmlns="http://www.w3.org/2000/svg">
<path d="M5.52344 12.375C6.65625 12.375 7.16406 13 9 13C10.875 13 11.3828 12.375 12.5156 12.375C15.4062 12.375 17.75 14.7578 17.75 17.6484V18.625C17.75 19.6797 16.9297 20.5 15.875 20.5H2.125C1.10938 20.5 0.25 19.6797 0.25 18.625V17.6484C0.25 14.7578 2.63281 12.375 5.52344 12.375ZM2.125 18.625H15.875V17.6484C15.875 15.7734 14.3906 14.25 12.5156 14.25C11.9297 14.25 11.0312 14.875 9 14.875C7.00781 14.875 6.10938 14.25 5.52344 14.25C3.64844 14.25 2.125 15.7734 2.125 17.6484V18.625ZM9 11.75C5.91406 11.75 3.375 9.25 3.375 6.125C3.375 3.03906 5.91406 0.5 9 0.5C12.125 0.5 14.625 3.03906 14.625 6.125C14.625 9.25 12.125 11.75 9 11.75ZM9 2.375C6.96875 2.375 5.25 4.09375 5.25 6.125C5.25 8.19531 6.96875 9.875 9 9.875C11.0703 9.875 12.75 8.19531 12.75 6.125C12.75 4.09375 11.0703 2.375 9 2.375Z" fill="#817979"/>
</svg>
