<svg width="20" height="20" viewBox="0 0 20 20" fill="none" xmlns="http://www.w3.org/2000/svg">
<path d="M1.49785 16.5517H18.5021C19.3294 16.5517 20 15.8811 20 15.0539V13.1034H0V15.0539C0 15.8811 0.670586 16.5517 1.49785 16.5517Z" fill="#73AF00"/>
<path d="M20 4.94614C20 4.11891 19.3294 3.44829 18.5021 3.44829H1.49785C0.670586 3.44829 0 4.11887 0 4.94614V13.1035H20V4.94614Z" fill="#FF4B55"/>
<path d="M1.49785 16.5517H2.75863V3.44829H1.49785C0.670586 3.44829 0 4.11887 0 4.94614V15.0539C0 15.8811 0.670586 16.5517 1.49785 16.5517Z" fill="#F5F5F5"/>
<path d="M2.41364 12.4891H2.29224V12.8308H2.41364V12.4891Z" fill="#FF4B55"/>
<path d="M0.467229 5.68283H0.345276V6.02463H0.467229V5.68283Z" fill="#FF4B55"/>
<path d="M0.345032 6.71084H0.406282V6.8842H0.466985V7.05513H0.649016V6.8842H0.710305V6.71084H0.769797V6.48295H0.710305V6.30959H0.649016V6.14119H0.466985V6.30959H0.406282V6.48295H0.345032V6.71084ZM0.466985 6.53994H0.527102V6.42603H0.589602V6.53994H0.649016V6.65385H0.589602V6.77025H0.527102V6.65385H0.466985V6.53994Z" fill="#FF4B55"/>
<path d="M0.467229 7.16914H0.345276V7.51336H0.467229V7.16914Z" fill="#FF4B55"/>
<path d="M1.44041 5.68283H1.31842V6.02463H1.44041V5.68283Z" fill="#FF4B55"/>
<path d="M1.13634 6.14119V6.30959H1.07563V6.48295H1.01434V6.71084H1.07563V6.8842H1.13634V7.05513H1.31837V6.8842H1.44036V7.05513H1.62302V6.8842H1.68493V6.71084H1.74442V6.48295H1.68493V6.30959H1.62302V6.14119H1.44036V6.30959H1.31837V6.14119H1.13634ZM1.4404 6.53994H1.50169V6.42603H1.56298V6.53994H1.62302V6.65385H1.56298V6.77025H1.50169V6.65385H1.4404V6.53994ZM1.31841 6.65388H1.25837V6.77029H1.19641V6.65388H1.13637V6.53998H1.19641V6.42607H1.25837V6.53998H1.31841V6.65388Z" fill="#FF4B55"/>
<path d="M0.467229 11.1742H0.345276V11.402H0.467229V11.1742Z" fill="#FF4B55"/>
<path d="M0.467229 8.6004H0.345276V8.82822H0.467229V8.6004Z" fill="#FF4B55"/>
<path d="M1.44041 7.16914H1.31842V7.51336H1.44041V7.16914Z" fill="#FF4B55"/>
<path d="M0.467229 12.4891H0.345276V12.8308H0.467229V12.4891Z" fill="#FF4B55"/>
<path d="M0.466985 10.0025V10V9.82915H0.345032V10V10.0025V10.1734H0.466985V10.0025Z" fill="#FF4B55"/>
<path d="M0.467229 15.6371H0.345276V15.9789H0.467229V15.6371Z" fill="#FF4B55"/>
<path d="M2.41364 15.6371H2.29224V15.9789H2.41364V15.6371Z" fill="#FF4B55"/>
<path d="M0.467229 13.9777H0.345276V14.3195H0.467229V13.9777Z" fill="#FF4B55"/>
<path d="M1.44041 15.6371H1.31842V15.9789H1.44041V15.6371Z" fill="#FF4B55"/>
<path d="M2.10784 6.13872V6.30958H2.0478V6.48294H1.98651V6.71083H2.0478V6.88169H2.10784V7.05262H2.29116V6.88169H2.35186V6.71083H2.4119V6.48294H2.35186V6.30958H2.29116V6.13872H2.10784ZM2.29116 6.65387H2.22987V6.76774H2.16854V6.65387H2.10784V6.53747H2.16854V6.42598H2.22983V6.53747H2.29112L2.29116 6.65387Z" fill="#FF4B55"/>
<path d="M2.41364 4.02344H2.29224V4.36523H2.41364V4.02344Z" fill="#FF4B55"/>
<path d="M0.467229 4.02344H0.345276V4.36523H0.467229V4.02344Z" fill="#FF4B55"/>
<path d="M2.41364 7.16914H2.29224V7.51336H2.41364V7.16914Z" fill="#FF4B55"/>
<path d="M2.41364 5.68283H2.29224V6.02463H2.41364V5.68283Z" fill="#FF4B55"/>
<path d="M1.44041 4.02344H1.31842V4.36523H1.44041V4.02344Z" fill="#FF4B55"/>
<path d="M0.953079 14.7781H0.832336V15.063H0.953079V14.7781Z" fill="#FF4B55"/>
<path d="M1.13634 10.0025V10V9.82915H1.01434V10V10.0025V10.1734H1.13634V10.0025Z" fill="#FF4B55"/>
<path d="M1.80628 3.79309V4.08047H1.68491V4.36532H1.56296V4.65258H1.44034V4.93743H1.31835V4.65258H1.19636V4.36532H1.07562V4.08047H0.95429V3.79309H0.832297V4.08047H0.710305V4.36532H0.589563V4.65258H0.466946V4.93743H0.345032V5.22481H0.466985V5.50965H0.589602V5.79692H0.710344V6.08418H0.832336V6.36903H0.953079V6.08418H1.0757V5.79692H1.19644V5.50965H1.31843V5.22481H1.44042V5.50965H1.56304V5.79692H1.68378V6.08418H1.80636V6.36903H1.92777V6.08418H2.04909V5.79692H2.17105V5.50965H2.29238V5.22481H2.41378V4.93743H2.293V4.65258H2.17101V4.36532H2.04906V4.08047H1.92773V3.79309H1.80628ZM1.19636 5.22473H1.07562V5.50958H0.953V5.79684H0.832297V5.50958H0.710305V5.22473H0.589563V4.93735H0.710305V4.6525H0.832297V4.36524H0.95304V4.6525H1.07566V4.93735H1.1964L1.19636 5.22473ZM2.04909 4.65258V4.93743H2.17105V5.22481H2.04909V5.50965H1.92777V5.79692H1.80636V5.50965H1.68499V5.22481H1.56304V4.93743H1.68499V4.65258H1.80636V4.36532H1.92777V4.65258H2.04909Z" fill="#FF4B55"/>
<path d="M1.44041 9.40039H1.31842V9.68523H1.44041V9.40039Z" fill="#FF4B55"/>
<path d="M1.44041 10.3168H1.31842V10.6016H1.44041V10.3168Z" fill="#FF4B55"/>
<path d="M1.62305 10V10.0025V10.1734H1.74441V10.0025V10V9.82915H1.62305V10Z" fill="#FF4B55"/>
<path d="M1.68495 15.6372V15.922H1.80632V16.2069H1.92773V15.922H2.04906V15.6372H2.17101V15.3499H2.293V15.0627H2.41378V14.7778H2.29238V14.4904H2.17105V14.2056H2.04909V13.9183H1.92777V13.6335H1.80636V13.9183H1.68378V14.2056H1.56304V14.4904H1.44042V14.7778H1.31843V14.4904H1.19644V14.2056H1.0757V13.9183H0.953079V13.6335H0.832336V13.9183H0.710344V14.2056H0.589602V14.4904H0.466985V14.7778H0.345032V15.0627H0.466985V15.3499H0.589602V15.6372H0.710344V15.922H0.832336V16.2069H0.954329V15.922H1.0757V15.6372H1.19644V15.3499H1.31843V15.0627H1.44042V15.3499H1.56304V15.6372H1.68495ZM1.19636 15.0626H1.07562V15.3499H0.953V15.6372H0.832297V15.3499H0.710305V15.0626H0.589563V14.7778H0.710305V14.4904H0.832297V14.2056H0.95304V14.4904H1.07566V14.7778H1.1964L1.19636 15.0626ZM1.563 14.7778H1.68495V14.4904H1.80632V14.2056H1.92773V14.4904H2.04906V14.7778H2.17101V15.0627H2.04906V15.3499H1.92773V15.6372H1.80632V15.3499H1.68495V15.0627H1.563C1.563 15.0626 1.563 14.7778 1.563 14.7778Z" fill="#FF4B55"/>
<path d="M1.50164 9.74245H1.44035V9.82913H1.31836V9.74245H1.25832V9.62846H1.13629V9.7994H1.19633V9.88609H1.25832V9.99999V10.0025V10.1139H1.19633V10.2006H1.13629V10.3715H1.25832V10.2576H1.31836V10.1734H1.44035V10.2576H1.50164V10.3715H1.62301V10.2006H1.56297V10.1139H1.50164V10.0025V9.99999V9.88609H1.56297V9.7994H1.62301V9.62846H1.50164V9.74245Z" fill="#FF4B55"/>
<path d="M1.92762 4.93752H1.80621V5.22491H1.92762V4.93752Z" fill="#FF4B55"/>
<path d="M1.92762 14.7781H1.80621V15.063H1.92762V14.7781Z" fill="#FF4B55"/>
<path d="M0.649016 13.8613V13.6905H0.710305V13.5196H0.769797V13.2893H0.710305V13.1184H0.649016V12.9475H0.466985V13.1184H0.406282V13.2893H0.345032V13.5196H0.406282V13.6905H0.466985V13.8613H0.649016ZM0.466985 13.3461H0.528274V13.2323H0.589563V13.3461H0.648977V13.4625H0.589563V13.5764H0.528274V13.4625H0.466985V13.3461Z" fill="#FF4B55"/>
<path d="M0.953079 4.93752H0.832336V5.22491H0.953079V4.93752Z" fill="#FF4B55"/>
<path d="M2.41364 13.9777H2.29224V14.3195H2.41364V13.9777Z" fill="#FF4B55"/>
<path d="M1.62301 13.8613V13.6905H1.68493V13.5196H1.74442V13.2893H1.68493V13.1184H1.62301V12.9475H1.44036V13.1184H1.31837V12.9475H1.13634V13.1184H1.07563V13.2893H1.01434V13.5196H1.07563V13.6905H1.13634V13.8613H1.31837V13.6905H1.44036V13.8613H1.62301ZM1.31837 13.4625H1.25833V13.5764H1.19637V13.4625H1.13634V13.3461H1.19637V13.2323H1.25833V13.3461H1.31837V13.4625ZM1.44036 13.3461H1.50165V13.2323H1.56294V13.3461H1.62297V13.4625H1.56294V13.5764H1.50165V13.4625H1.44036V13.3461Z" fill="#FF4B55"/>
<path d="M1.44041 13.9777H1.31842V14.3195H1.44041V13.9777Z" fill="#FF4B55"/>
<path d="M1.44041 12.4891H1.31842V12.8308H1.44041V12.4891Z" fill="#FF4B55"/>
<path d="M2.41364 11.1742H2.29224V11.402H2.41364V11.1742Z" fill="#FF4B55"/>
<path d="M2.29116 13.8613V13.6905H2.35186V13.5196H2.4119V13.2917H2.35186V13.1184H2.29116V12.9499H2.10784V13.1184H2.0478V13.2917H1.98651V13.5196H2.0478V13.6905H2.10784V13.8613H2.29116ZM2.10784 13.3487H2.16854V13.2348H2.22983V13.3487H2.29112V13.4625H2.22983V13.579H2.16854V13.4625H2.10784V13.3487Z" fill="#FF4B55"/>
<path d="M2.29236 10V10.0025V10.1734H2.41376V10.0025V10V9.82915H2.29236V10Z" fill="#FF4B55"/>
<path d="M2.41364 8.6004H2.29224V8.82822H2.41364V8.6004Z" fill="#FF4B55"/>
<path d="M2.41378 7.96907H2.29238V7.68422H2.17105V7.39684H2.04909V7.112H1.92777V6.82473H1.80636V7.112H1.68378V7.39684H1.56304V7.68422H1.44042V7.91204V7.96903H1.31843V7.68418H1.19644V7.3968H1.0757V7.11196H0.953079V6.82469H0.832336V7.11196H0.710344V7.3968H0.588352V7.68418H0.466985V7.912V7.96899H0.345032V8.25625H0.466985V8.54352H0.588352V8.82836H0.710344V9.11325H0.832336V8.82836H0.953079V8.54352H1.0757V8.25625H0.953079V7.91196H1.0757V7.96895V8.14231H1.19644V8.60055H1.25839V8.88289L1.07573 8.88536V9.11325H0.953118V9.28411H0.832375V9.57137H0.710383V9.28411H0.588391V9.11325H0.467024V8.94231H0.345032V9.45746H0.466985V9.68782H0.588352V9.88598H0.710344V10V10.0025V10.1139H0.588352V10.317H0.466985V10.5449H0.345032V11.0601H0.466985V10.8867H0.588352V10.7158H0.710344V10.431H0.832336V10.7158H0.953079V10.8867H1.0757V11.117L1.25835 11.1195V11.4018H1.1964V11.8601H1.07566V12.0309V12.0904H0.95304V11.7437H1.07566V11.4588H0.95304V11.174H0.832297V10.8866H0.710305V11.174H0.588313V11.4588H0.466946V11.7437H0.345032V12.0309H0.466985V12.0904V12.3158H0.589602V12.6032H0.710344V12.8904H0.832336V13.1753H0.953079V12.8904H1.0757V12.6032H1.19644V12.3158H1.31843V12.0309H1.44042V12.0904V12.3158H1.56304V12.6032H1.68499V12.8904H1.80636V13.1753H1.92777V12.8904H2.04909V12.6032H2.17105V12.3158H2.29238V12.0309H2.41378V11.7437H2.29238V11.4588H2.17105V11.174H2.04909V10.8866H1.92777V11.174H1.80636V11.4588H1.68378V11.7437H1.80636V12.0309V12.0904H1.68378V12.0309V11.8601H1.56304V11.4018H1.54566H1.50175V11.117H1.54566H1.57851H1.62308H1.68499V10.8866H1.80636V10.7158H1.92777V10.4309H2.04909V10.7158H2.17105V10.8866H2.29304V11.06H2.41382V10.5449H2.29304V10.317H2.17105V10.1139H2.04909V10.0024V10V9.8861H2.17105V9.68793H2.29304V9.45758H2.41382V8.94243H2.29304V9.11336H2.17105V9.28422H2.04909V9.57149H1.92777V9.28422H1.80636V9.11336H1.68499V8.88547H1.62304H1.57847H1.54562H1.50171V8.60063H1.54562H1.563V8.14239H1.68374V7.96903V7.91204H1.80632V7.96903V8.25629H1.68374V8.54356H1.80632V8.8284H1.92773V9.11329H2.04906V8.8284H2.17101V8.54356H2.29234V8.25629H2.41374L2.41378 7.96907ZM1.68495 9.45754V9.57145V9.68786H1.80632V9.88602H1.92773V10V10.1139H1.80632V10.317H1.68495V10.4309V10.5448H1.50171V10.8148H1.44042V10.9436H1.37976H1.31843V10.8148H1.25839V10.5448H1.07573V10.3169H0.953118V10.1138H0.832336V10.0048V9.99739V9.8859H0.953079V9.68774H1.0757V9.45739H1.25835V9.18747H1.31839V9.05614H1.37972H1.44038V9.18493H1.50167V9.45739H1.68495V9.45754Z" fill="#FF4B55"/>
</svg>
