<svg width="20" height="20" viewBox="0 0 20 20" fill="none" xmlns="http://www.w3.org/2000/svg">
<path d="M18.5021 3.44824H1.49785C0.670586 3.44824 0 4.11883 0 4.94609V15.0539C0 15.8811 0.670586 16.5518 1.49785 16.5518H18.5021C19.3294 16.5518 20 15.8812 20 15.0539V4.94609C20 4.11883 19.3294 3.44824 18.5021 3.44824Z" fill="#FF4B55"/>
<path d="M3.3206 5.49732L3.64935 6.48302L4.68841 6.49107C4.82294 6.49209 4.87872 6.66381 4.77048 6.74369L3.93462 7.36091L4.24802 8.35161C4.28857 8.47989 4.14255 8.58595 4.0331 8.50775L3.18778 7.90349L2.34247 8.50771C2.23302 8.58595 2.087 8.47982 2.12755 8.35157L2.44095 7.36087L1.60509 6.74369C1.49685 6.66377 1.55263 6.49209 1.68716 6.49107L2.72622 6.48302L3.05497 5.49732C3.09755 5.36971 3.27806 5.36971 3.3206 5.49732Z" fill="#FFE15A"/>
<path d="M7.09374 5.7402L7.32948 6.0616L7.70991 5.94262C7.75917 5.92723 7.79968 5.9834 7.76952 6.02524L7.53663 6.34871L7.76733 6.67375C7.79722 6.71582 7.75632 6.77172 7.70718 6.75598L7.32753 6.63445L7.08968 6.95434C7.0589 6.99574 6.99308 6.9741 6.99288 6.92254L6.99112 6.52391L6.61339 6.39653C6.56449 6.38 6.56472 6.31078 6.61374 6.29461L6.99226 6.16977L6.99671 5.77117C6.99726 5.71973 7.06323 5.6986 7.09374 5.7402Z" fill="#FFE15A"/>
<path d="M5.65849 4.782L6.05474 4.82505L6.2238 4.46407C6.24572 4.41736 6.31451 4.42536 6.32501 4.47587L6.4065 4.86603L6.80204 4.91525C6.85326 4.92161 6.86689 4.9895 6.82208 5.01517L6.47618 5.21321L6.55161 5.60462C6.56138 5.65532 6.50103 5.68923 6.46279 5.65458L6.16751 5.38681L5.81861 5.57946C5.77345 5.60442 5.72247 5.55747 5.74365 5.5104L5.90704 5.14681L5.61595 4.87446C5.57833 4.83939 5.6072 4.77646 5.65849 4.782Z" fill="#FFE15A"/>
<path d="M6.28498 8.64506L6.04927 8.96654L5.66884 8.84756C5.61959 8.83217 5.57908 8.8883 5.60924 8.93018L5.84213 9.25365L5.61142 9.57869C5.58154 9.62076 5.62244 9.67666 5.67158 9.66092L6.05119 9.5394L6.28904 9.85928C6.31982 9.90069 6.38564 9.87905 6.38583 9.82748L6.38759 9.42885L6.76533 9.30147C6.81423 9.28494 6.814 9.21572 6.76497 9.19955L6.38646 9.07471L6.38201 8.67611C6.38138 8.62459 6.31548 8.60342 6.28498 8.64506Z" fill="#FFE15A"/>
<path d="M7.72011 7.74459L7.32382 7.78764L7.15476 7.42666C7.13284 7.37994 7.06409 7.38795 7.05355 7.43846L6.97202 7.82861L6.57648 7.87783C6.52527 7.8842 6.51163 7.95209 6.55644 7.97775L6.90233 8.1758L6.82691 8.56721C6.81714 8.61791 6.87749 8.65182 6.91573 8.61717L7.21101 8.34939L7.55991 8.54205C7.60507 8.56701 7.65604 8.52006 7.63487 8.47299L7.47147 8.10939L7.76257 7.83705C7.80034 7.80197 7.77147 7.73904 7.72011 7.74459Z" fill="#FFE15A"/>
</svg>
