<svg width="20" height="20" viewBox="0 0 20 20" fill="none" xmlns="http://www.w3.org/2000/svg">
<path d="M18.5021 3.44827H1.49785C0.670586 3.44827 0 4.11886 0 4.94612V7.81608H20V4.94612C20 4.11886 19.3294 3.44827 18.5021 3.44827Z" fill="#FAB446"/>
<path d="M0 15.0539C0 15.8811 0.670586 16.5517 1.49785 16.5517H18.5021C19.3294 16.5517 20 15.8811 20 15.0539V12.1839H0V15.0539Z" fill="#73AF00"/>
<path d="M20 7.81601H0V12.1836H20V7.81601Z" fill="#F5F5F5"/>
<path d="M9.99998 11.8535C8.97795 11.8535 8.14655 11.022 8.14655 10C8.14655 8.97798 8.97795 8.14658 9.99998 8.14658C11.022 8.14658 11.8534 8.97798 11.8534 10C11.8534 11.022 11.022 11.8535 9.99998 11.8535ZM9.99998 8.49138C9.16803 8.49138 8.49135 9.16806 8.49135 10C8.49135 10.832 9.16803 11.5086 9.99998 11.5086C10.8319 11.5086 11.5086 10.832 11.5086 10C11.5086 9.16806 10.8319 8.49138 9.99998 8.49138Z" fill="#41479B"/>
<path d="M10 10.2101C10.1161 10.2101 10.2102 10.116 10.2102 10C10.2102 9.88396 10.1161 9.78989 10 9.78989C9.88399 9.78989 9.78992 9.88396 9.78992 10C9.78992 10.116 9.88399 10.2101 10 10.2101Z" fill="#41479B"/>
<path d="M9.99998 10.0316L9.466 10.0855L8.31897 10.0316V9.96851L9.466 9.91461L9.99998 9.96851V10.0316Z" fill="#41479B"/>
<path d="M10 10.0316L10.534 10.0855L11.681 10.0316V9.96851L10.534 9.91461L10 9.96851V10.0316Z" fill="#41479B"/>
<path d="M9.96845 10L9.91455 9.46603L9.96845 8.319H10.0315L10.0854 9.46603L10.0315 10H9.96845Z" fill="#41479B"/>
<path d="M9.96845 10L9.91455 10.534L9.96845 11.681H10.0315L10.0854 10.534L10.0315 10H9.96845Z" fill="#41479B"/>
<path d="M9.97773 10.0223L9.56203 9.68285L8.78906 8.83363L8.83363 8.78906L9.68285 9.56203L10.0223 9.97773L9.97773 10.0223Z" fill="#41479B"/>
<path d="M9.97772 10.0223L10.3171 10.438L11.1664 11.211L11.2109 11.1664L10.438 10.3172L10.0223 9.97775L9.97772 10.0223Z" fill="#41479B"/>
<path d="M9.97772 9.97773L10.3171 9.56203L11.1664 8.78906L11.2109 8.83363L10.438 9.68285L10.0223 10.0223L9.97772 9.97773Z" fill="#41479B"/>
<path d="M9.97773 9.97775L9.56203 10.3172L8.78906 11.1664L8.83363 11.211L9.68285 10.438L10.0223 10.0223L9.97773 9.97775Z" fill="#41479B"/>
<path d="M10.0121 10.0292L9.53934 10.2833L8.45902 10.6724L8.43488 10.6142L9.47399 10.1255L9.98794 9.97089L10.0121 10.0292Z" fill="#41479B"/>
<path d="M10.0121 10.0291L10.526 9.87456L11.5651 9.38582L11.541 9.32758L10.4607 9.71671L9.98792 9.97084L10.0121 10.0291Z" fill="#41479B"/>
<path d="M9.97084 10.0121L9.71671 9.53937L9.32758 8.45905L9.38582 8.43491L9.87456 9.47402L10.0291 9.98797L9.97084 10.0121Z" fill="#41479B"/>
<path d="M9.97083 10.0121L10.1254 10.526L10.6141 11.5651L10.6724 11.541L10.2832 10.4607L10.0291 9.98795L9.97083 10.0121Z" fill="#41479B"/>
<path d="M9.98794 10.0291L9.47399 9.87456L8.43488 9.38582L8.45902 9.32758L9.53934 9.71671L10.0121 9.97084L9.98794 10.0291Z" fill="#41479B"/>
<path d="M9.98792 10.0292L10.4607 10.2833L11.541 10.6724L11.5651 10.6142L10.526 10.1255L10.0121 9.97089L9.98792 10.0292Z" fill="#41479B"/>
<path d="M9.97083 9.98797L10.1254 9.47402L10.6141 8.43491L10.6724 8.45905L10.2832 9.53937L10.0291 10.0121L9.97083 9.98797Z" fill="#41479B"/>
<path d="M9.97084 9.98795L9.71671 10.4607L9.32758 11.541L9.38582 11.5651L9.87456 10.526L10.0291 10.0121L9.97084 9.98795Z" fill="#41479B"/>
<path d="M9.99998 10.2834C10.1565 10.2834 10.2834 10.1565 10.2834 9.99998C10.2834 9.84345 10.1565 9.71655 9.99998 9.71655C9.84345 9.71655 9.71655 9.84345 9.71655 9.99998C9.71655 10.1565 9.84345 10.2834 9.99998 10.2834Z" fill="#F5F5F5"/>
<path d="M10 10.17C10.0939 10.17 10.17 10.0939 10.17 10C10.17 9.90614 10.0939 9.83005 10 9.83005C9.90617 9.83005 9.83008 9.90614 9.83008 10C9.83008 10.0939 9.90617 10.17 10 10.17Z" fill="#41479B"/>
</svg>
