<svg width="20" height="20" viewBox="0 0 20 20" fill="none" xmlns="http://www.w3.org/2000/svg">
<path d="M0 15.0539C0 15.8811 0.670586 16.5517 1.49785 16.5517H18.5021C19.3294 16.5517 20 15.8811 20 15.0539V13.7931H0V15.0539Z" fill="#C8414B"/>
<path d="M18.5021 3.44829H1.49785C0.670586 3.44829 0 4.11887 0 4.94614V6.20692H20V4.94614C20 4.11887 19.3294 3.44829 18.5021 3.44829Z" fill="#C8414B"/>
<path d="M20 6.20703H0V13.7934H20V6.20703Z" fill="#FFD250"/>
<path d="M8.44831 10L8.74069 8.68434C8.76764 8.56316 8.67542 8.44824 8.55128 8.44824H8.34534C8.22124 8.44824 8.12905 8.5632 8.15593 8.68434L8.44831 10Z" fill="#C8414B"/>
<path d="M8.79316 9.31015H8.10352V12.241H8.79316V9.31015Z" fill="#F5F5F5"/>
<path d="M8.96534 8.96561H7.93085V9.31045H8.96534V8.96561Z" fill="#FAB446"/>
<path d="M8.96561 10H7.24139V10.3448H8.96561V10Z" fill="#C8414B"/>
<path d="M8.96546 11.3793L7.93097 11.0345V10.6897L8.96546 11.0345V11.3793Z" fill="#C8414B"/>
<path d="M3.27583 10L3.56821 8.68434C3.59516 8.56316 3.50294 8.44824 3.3788 8.44824H3.17286C3.04876 8.44824 2.95657 8.5632 2.98344 8.68434L3.27583 10Z" fill="#C8414B"/>
<path d="M4.48278 8.96552C4.29235 8.96552 4.13794 9.11993 4.13794 9.31036V11.5517C4.13794 11.9707 4.52896 12.7586 5.86208 12.7586C7.1952 12.7586 7.58622 11.9707 7.58622 11.5517V9.31036C7.58622 9.11993 7.43181 8.96552 7.24138 8.96552H4.48278Z" fill="#F5F5F5"/>
<path d="M5.86208 10.6897H4.13794V9.31036C4.13794 9.11993 4.29235 8.96552 4.48278 8.96552H5.86208V10.6897Z" fill="#C8414B"/>
<path d="M5.86206 10.6897H7.5862V11.5517C7.5862 12.0279 7.20026 12.4138 6.72413 12.4138C6.248 12.4138 5.86206 12.0279 5.86206 11.5517V10.6897Z" fill="#C8414B"/>
<path d="M4.13794 10.6897H5.86208V11.5517C5.86208 12.0279 5.47614 12.4138 5.00001 12.4138C4.52388 12.4138 4.13794 12.0279 4.13794 11.5517V10.6897Z" fill="#FAB446"/>
<path d="M5.51721 12.2375V10.6897H5.17236V12.3964C5.30064 12.3704 5.41654 12.3136 5.51721 12.2375Z" fill="#C8414B"/>
<path d="M4.82757 12.3964V10.6897H4.48273V12.2375C4.58343 12.3136 4.69933 12.3704 4.82757 12.3964Z" fill="#C8414B"/>
<path d="M5.51727 10H4.48279V10.3448H5.51727V10Z" fill="#FFB441"/>
<path d="M5.51727 9.31015H4.48279V9.65499H5.51727V9.31015Z" fill="#FAB446"/>
<path d="M5.34468 9.51523H4.65503V10.1399H5.34468V9.51523Z" fill="#FAB446"/>
<path d="M3.6205 9.31015H2.93085V12.241H3.6205V9.31015Z" fill="#F5F5F5"/>
<path d="M3.7931 12.0691H2.75861V12.414H3.7931V12.0691Z" fill="#FAB446"/>
<path d="M3.7931 8.96561H2.75861V9.31045H3.7931V8.96561Z" fill="#FAB446"/>
<path d="M3.96566 12.4137H2.58636V12.7585H3.96566V12.4137Z" fill="#5064AA"/>
<path d="M9.13801 12.0691H8.10352V12.414H9.13801V12.0691Z" fill="#FAB446"/>
<path d="M9.1379 12.4137H7.75861V12.7585H9.1379V12.4137Z" fill="#5064AA"/>
<path d="M6.89674 8.6207H4.82776V8.96554H6.89674V8.6207Z" fill="#FAB446"/>
<path d="M6.03466 7.58632H5.68982V8.62081H6.03466V7.58632Z" fill="#FFB441"/>
<path d="M5.51723 8.10344C5.23199 8.10344 5 7.87141 5 7.58621C5 7.30098 5.23203 7.06898 5.51723 7.06898C5.80246 7.06898 6.03445 7.30102 6.03445 7.58621C6.03449 7.87141 5.80246 8.10344 5.51723 8.10344ZM5.51723 7.41379C5.42211 7.41379 5.3448 7.49106 5.3448 7.58621C5.3448 7.68133 5.42207 7.75863 5.51723 7.75863C5.61238 7.75863 5.68965 7.68137 5.68965 7.58621C5.68965 7.49109 5.61238 7.41379 5.51723 7.41379Z" fill="#F5F5F5"/>
<path d="M6.20692 8.10344C5.92169 8.10344 5.6897 7.87141 5.6897 7.58621C5.6897 7.30098 5.92173 7.06898 6.20692 7.06898C6.49216 7.06898 6.72415 7.30102 6.72415 7.58621C6.72415 7.87141 6.49212 8.10344 6.20692 8.10344ZM6.20692 7.41379C6.11181 7.41379 6.0345 7.49106 6.0345 7.58621C6.0345 7.68133 6.11177 7.75863 6.20692 7.75863C6.30204 7.75863 6.37935 7.68137 6.37935 7.58621C6.37931 7.49109 6.30204 7.41379 6.20692 7.41379Z" fill="#F5F5F5"/>
<path d="M6.89656 8.44829C6.61133 8.44829 6.37933 8.21626 6.37933 7.93106C6.37933 7.64583 6.61136 7.41383 6.89656 7.41383C7.18179 7.41383 7.41379 7.64586 7.41379 7.93106C7.41379 8.21626 7.18176 8.44829 6.89656 8.44829ZM6.89656 7.75864C6.80144 7.75864 6.72414 7.8359 6.72414 7.93106C6.72414 8.02618 6.8014 8.10348 6.89656 8.10348C6.99168 8.10348 7.06898 8.02622 7.06898 7.93106C7.06898 7.8359 6.99168 7.75864 6.89656 7.75864Z" fill="#F5F5F5"/>
<path d="M4.82759 8.44829C4.54236 8.44829 4.31036 8.21626 4.31036 7.93106C4.31036 7.64583 4.5424 7.41383 4.82759 7.41383C5.11282 7.41383 5.34482 7.64586 5.34482 7.93106C5.34486 8.21626 5.11282 8.44829 4.82759 8.44829ZM4.82759 7.75864C4.73247 7.75864 4.65517 7.8359 4.65517 7.93106C4.65517 8.02618 4.73243 8.10348 4.82759 8.10348C4.92275 8.10348 5.00001 8.02618 5.00001 7.93102C5.00001 7.8359 4.92275 7.75864 4.82759 7.75864Z" fill="#F5F5F5"/>
<path d="M6.89654 11.3793V11.5517C6.89654 11.6468 6.81919 11.7241 6.72411 11.7241C6.62904 11.7241 6.55169 11.6468 6.55169 11.5517V11.3793H6.89654ZM7.24134 11.0345H6.20685V11.5517C6.20685 11.8369 6.43888 12.0689 6.72407 12.0689C7.00931 12.0689 7.2413 11.8369 7.2413 11.5517V11.0345H7.24134Z" fill="#FAB446"/>
<path d="M6.72412 10.3448C6.53369 10.3448 6.37927 10.1904 6.37927 10V9.65516C6.37927 9.46473 6.53369 9.31032 6.72412 9.31032C6.91455 9.31032 7.06896 9.46473 7.06896 9.65516V10C7.06896 10.1904 6.91455 10.3448 6.72412 10.3448Z" fill="#FFA0D2"/>
<path d="M5.86214 11.2067C6.14779 11.2067 6.37936 10.9751 6.37936 10.6895C6.37936 10.4038 6.14779 10.1722 5.86214 10.1722C5.57648 10.1722 5.34491 10.4038 5.34491 10.6895C5.34491 10.9751 5.57648 11.2067 5.86214 11.2067Z" fill="#5064AA"/>
<path d="M6.03466 6.8965H5.68982V7.93099H6.03466V6.8965Z" fill="#FAB446"/>
<path d="M4.82757 8.6207L4.48273 8.27586L4.68472 8.07387C4.99694 7.76164 5.42046 7.58621 5.86206 7.58621C6.30366 7.58621 6.72713 7.76164 7.0394 8.07387L7.24139 8.27586L6.89655 8.6207H4.82757Z" fill="#C8414B"/>
<path d="M5.86206 8.44822C5.95728 8.44822 6.03448 8.37103 6.03448 8.2758C6.03448 8.18057 5.95728 8.10338 5.86206 8.10338C5.76683 8.10338 5.68964 8.18057 5.68964 8.2758C5.68964 8.37103 5.76683 8.44822 5.86206 8.44822Z" fill="#FFD250"/>
<path d="M5.17224 8.44822C5.26746 8.44822 5.34466 8.37103 5.34466 8.2758C5.34466 8.18057 5.26746 8.10338 5.17224 8.10338C5.07701 8.10338 4.99982 8.18057 4.99982 8.2758C4.99982 8.37103 5.07701 8.44822 5.17224 8.44822Z" fill="#FFD250"/>
<path d="M6.55151 8.44822C6.64674 8.44822 6.72393 8.37103 6.72393 8.2758C6.72393 8.18057 6.64674 8.10338 6.55151 8.10338C6.45629 8.10338 6.37909 8.18057 6.37909 8.2758C6.37909 8.37103 6.45629 8.44822 6.55151 8.44822Z" fill="#FFD250"/>
<path d="M4.48282 10H2.75861V10.3448H4.48282V10Z" fill="#C8414B"/>
<path d="M2.75867 11.3793L3.79312 11.0345V10.6897L2.75867 11.0345V11.3793Z" fill="#C8414B"/>
</svg>
