<svg width="20" height="20" viewBox="0 0 20 20" fill="none" xmlns="http://www.w3.org/2000/svg">
<path d="M18.5021 3.44824H1.49785C0.670586 3.44824 0 4.11883 0 4.94609V15.0539C0 15.8811 0.670586 16.5518 1.49785 16.5518H18.5021C19.3294 16.5518 20 15.8812 20 15.0539V4.94609C20 4.11883 19.3294 3.44824 18.5021 3.44824Z" fill="#FF4B55"/>
<path d="M9.90135 8.8184L10.4419 9.52547L11.2858 9.24297C11.333 9.22715 11.3732 9.28055 11.3449 9.32148L10.8395 10.054L11.369 10.7694C11.3986 10.8094 11.3603 10.8641 11.3126 10.8498L10.4597 10.5955L9.94299 11.3201C9.91412 11.3606 9.85021 11.3411 9.849 11.2913L9.82732 10.4016L8.97849 10.1341C8.93103 10.1191 8.9299 10.0523 8.97685 10.0358L9.81635 9.74027L9.80846 8.85031C9.80795 8.80055 9.87115 8.77891 9.90135 8.8184Z" fill="#F5F5F5"/>
<path d="M6.91237 12.7602C5.38913 12.7602 4.1535 11.5245 4.1535 9.99992C4.1535 8.47813 5.38917 7.23969 6.91237 7.23969C7.47909 7.23969 8.0017 7.41398 8.43729 7.70898C8.50397 7.75414 8.5801 7.66652 8.52428 7.60848C7.87338 6.93172 6.9521 6.51887 5.93061 6.55371C4.17569 6.61359 2.72288 8.02063 2.61073 9.77297C2.48229 11.7802 4.07159 13.4482 6.05034 13.4482C7.02506 13.4482 7.90108 13.0407 8.52663 12.3892C8.5819 12.3316 8.50561 12.2454 8.43956 12.2901C8.00354 12.5857 7.48006 12.7602 6.91237 12.7602Z" fill="#F5F5F5"/>
</svg>
