<svg width="46" height="37" viewBox="0 0 46 37" fill="none" xmlns="http://www.w3.org/2000/svg">
<path d="M7.53125 29.6797L22.5078 24.8984C23.7031 24.4766 24.3359 23.2109 23.9844 22.0859L19.9062 9.21875C19.4844 8.02344 18.2188 7.39062 17.0234 7.74219L2.04688 12.5234C0.851562 12.875 0.21875 14.1406 0.570312 15.3359L4.71875 28.2031C5.07031 29.3984 6.33594 30.0312 7.53125 29.6797ZM11.3281 11.9609L12.6641 16.25L10.5547 16.8828L9.14844 12.5938L11.3281 11.9609ZM7.03906 13.2969L9.07812 19.7656L15.4766 17.6562L13.4375 11.2578L17.7266 9.85156L21.875 22.7188L6.82812 27.5703L2.75 14.7031L7.03906 13.2969ZM29.75 2.75H45.5V0.5H29.75C27.2188 0.5 25.25 2.53906 25.25 5V26.6562L0.851562 34.3203C0.570312 34.3906 0.429688 34.7422 0.5 35.0234L0.78125 36.0781C0.851562 36.4297 1.20312 36.5703 1.48438 36.5L26.3047 28.625H29.75C29.75 32.9844 33.2656 36.5 37.625 36.5C41.9141 36.5 45.5 32.9844 45.5 28.625C45.5 24.3359 41.9141 20.75 37.625 20.75C34.0391 20.75 31.0859 23.1406 30.1016 26.375H27.5V5C27.5 3.80469 28.4844 2.75 29.75 2.75ZM37.625 23C40.7188 23 43.25 25.5312 43.25 28.625C43.25 31.7891 40.7188 34.25 37.625 34.25C34.4609 34.25 32 31.7891 32 28.625C32 25.5312 34.4609 23 37.625 23Z" fill="#009D41"/>
</svg>
