<svg width="41" height="37" viewBox="0 0 41 37" fill="none" xmlns="http://www.w3.org/2000/svg">
<path d="M38.7422 5H9.07031L8.4375 1.90625C8.29688 1.13281 7.59375 0.5 6.82031 0.5H0.84375C0.351562 0.5 0 0.921875 0 1.34375V1.90625C0 2.39844 0.351562 2.75 0.84375 2.75H6.32812L11.25 28.9766C10.5469 29.8203 10.125 30.875 10.125 32C10.125 34.5312 12.0938 36.5 14.625 36.5C17.0859 36.5 19.125 34.5312 19.125 32C19.125 31.3672 18.8438 30.3828 18.4922 29.75H28.6875C28.3359 30.3828 28.125 31.3672 28.125 32C28.125 34.5312 30.0938 36.5 32.625 36.5C35.0859 36.5 37.125 34.5312 37.125 32C37.125 30.8047 36.5625 29.6094 35.7188 28.8359C35.5781 28.0625 34.875 27.5 34.1016 27.5H13.2891L12.4453 23H35.7188C36.5625 23 37.1953 22.5078 37.4062 21.6641L40.4297 7.03906C40.6406 5.98438 39.8672 5 38.7422 5ZM16.875 32C16.875 33.2656 15.8203 34.25 14.625 34.25C13.3594 34.25 12.375 33.2656 12.375 32C12.375 30.8047 13.3594 29.75 14.625 29.75C15.8203 29.75 16.875 30.8047 16.875 32ZM32.625 34.25C31.3594 34.25 30.375 33.2656 30.375 32C30.375 30.8047 31.3594 29.75 32.625 29.75C33.8203 29.75 34.875 30.8047 34.875 32C34.875 33.2656 33.8203 34.25 32.625 34.25ZM35.2969 20.75H12.0234L9.49219 7.25H38.1094L35.2969 20.75Z" fill="#009D41"/>
</svg>
