<svg width="46" height="37" viewBox="0 0 46 37" fill="none" xmlns="http://www.w3.org/2000/svg">
<path d="M43.25 9.5H29.75C28.4844 9.5 27.5 10.5547 27.5 11.75V34.25C27.5 35.5156 28.4844 36.5 29.75 36.5H43.25C44.4453 36.5 45.5 35.5156 45.5 34.25V11.75C45.5 10.5547 44.4453 9.5 43.25 9.5ZM43.25 34.25H29.75V11.75H43.25V34.25ZM7.25 2.75H34.25V7.25H36.5V2.75C36.5 1.55469 35.4453 0.5 34.25 0.5H7.25C5.98438 0.5 5 1.55469 5 2.75V20.75H1.625C0.992188 20.75 0.5 21.3125 0.5 21.875V23C0.5 25.5312 2.46875 27.5 4.92969 27.5H25.25V25.25H4.92969C3.73438 25.25 2.75 24.2656 2.75 23H25.25V20.75H7.25V2.75Z" fill="#009D41"/>
</svg>
