<svg width="15" height="16" viewBox="0 0 15 16" fill="none" xmlns="http://www.w3.org/2000/svg">
<path d="M14.4727 5.70898C14.4434 5.67969 14.0625 5.38672 13.5938 4.97656V3.6875C13.5938 2.92578 12.9492 2.28125 12.1875 2.28125H10.2246C9.58008 1.72461 8.58398 0.875 7.5 0.875C6.38672 0.875 5.41992 1.72461 4.74609 2.28125H2.8125C2.02148 2.28125 1.40625 2.92578 1.40625 3.6875V4.97656C0.908203 5.38672 0.527344 5.67969 0.498047 5.70898C0.205078 5.94336 0 6.41211 0 6.79297V14.4688C0 15.2598 0.615234 15.875 1.40625 15.875H13.5938C14.3555 15.875 15 15.2598 15 14.4688V6.79297C15 6.38281 14.7949 5.97266 14.4727 5.70898ZM2.8125 3.6875H12.1875V8.28711C11.1035 9.13672 9.87305 10.1621 9.63867 10.3379C9.11133 10.7773 8.17383 11.6562 7.5 11.6562C6.79688 11.6562 5.85938 10.748 5.33203 10.3379C5.09766 10.1621 3.86719 9.13672 2.8125 8.28711V3.6875ZM13.5938 14.293C13.5938 14.4102 13.5059 14.4688 13.418 14.4688H1.58203C1.46484 14.4688 1.40625 14.4102 1.40625 14.293V8.96094C2.51953 9.89844 4.18945 11.2461 4.45312 11.4512C5.09766 11.9492 6.21094 13.0625 7.5 13.0625C8.75977 13.0625 9.84375 11.9785 10.5176 11.4512C10.7812 11.2168 12.4512 9.86914 13.5938 8.96094V14.293ZM5.15625 6.5H9.84375C10.0781 6.5 10.3125 6.29492 10.3125 6.03125V5.5625C10.3125 5.32812 10.0781 5.09375 9.84375 5.09375H5.15625C4.89258 5.09375 4.6875 5.32812 4.6875 5.5625V6.03125C4.6875 6.29492 4.89258 6.5 5.15625 6.5ZM10.3125 8.375V7.90625C10.3125 7.67188 10.0781 7.4375 9.84375 7.4375H5.15625C4.89258 7.4375 4.6875 7.67188 4.6875 7.90625V8.375C4.6875 8.63867 4.89258 8.84375 5.15625 8.84375H9.84375C10.0781 8.84375 10.3125 8.63867 10.3125 8.375Z" fill="#009D41"/>
</svg>
