<svg width="14" height="16" viewBox="0 0 14 16" fill="none" xmlns="http://www.w3.org/2000/svg">
<path d="M10.0938 1.625C9.4375 2.21875 8.84375 2.84375 8.34375 3.5C7.5 2.3125 6.4375 1.125 5.25 0C2.15625 2.875 0 6.5625 0 8.8125C0 12.7812 3.125 16 7 16C10.8438 16 14 12.7812 14 8.8125C14 7.15625 12.375 3.71875 10.0938 1.625ZM9.5 12.25C8.8125 12.75 7.96875 13 7.0625 13C4.8125 13 3 11.5312 3 9.09375C3 7.90625 3.75 6.84375 5.25 5C5.46875 5.25 8.34375 8.9375 8.34375 8.9375L10.1875 6.84375C10.3125 7.0625 10.4375 7.28125 10.5312 7.46875C11.375 9.09375 11.0312 11.1875 9.5 12.25Z" fill="white"/>
</svg>
