<svg width="46" height="28" viewBox="0 0 46 28" fill="none" xmlns="http://www.w3.org/2000/svg">
<path d="M1.625 18C2.1875 18 2.75 17.5078 2.75 16.875C2.75 16.2422 2.1875 15.75 1.625 15.75C0.992188 15.75 0.5 16.2422 0.5 16.875C0.5 17.5078 0.992188 18 1.625 18ZM44.9375 4.5L36.9219 4.57031L33.3359 1.05469C32.7031 0.421875 31.8594 0.0703125 30.9453 0.0703125H23.8438C23.1406 0.0703125 22.4375 0.351562 21.875 0.773438C21.2422 0.28125 20.5391 0 19.7656 0H14.9141C14 0 13.1562 0.351562 12.5234 0.984375L9.00781 4.5H1.0625C0.710938 4.5 0.5 4.78125 0.5 5.0625V6.1875C0.5 6.53906 0.710938 6.75 1.0625 6.75H5V20.25H1.0625C0.710938 20.25 0.5 20.5312 0.5 20.8125V21.9375C0.5 22.2891 0.710938 22.5 1.0625 22.5H5C6.19531 22.5 7.17969 21.5156 7.17969 20.3203H9.57031L15.2656 25.8047C17.375 27.4922 20.3281 27.4219 22.3672 25.7344L22.8594 26.2266C23.5625 26.7188 24.4062 27.0703 25.25 27.0703C26.375 27.0703 27.4297 26.5781 28.1328 25.6641L29.6797 23.7656C30.875 24.3984 32.7031 24.3984 33.8984 22.9219L34.6016 22.0781C35.0234 21.5859 35.2344 20.9531 35.3047 20.3203H38.75C38.75 21.5156 39.7344 22.5 41 22.5H44.9375C45.2188 22.5 45.5 22.2891 45.5 21.9375V20.8125C45.5 20.5312 45.2188 20.25 44.9375 20.25H41V6.82031L44.9375 6.75C45.2188 6.75 45.5 6.53906 45.5 6.1875V5.0625C45.5 4.78125 45.2188 4.5 44.9375 4.5ZM32.8438 20.6719L32.1406 21.5156C31.7891 21.9375 31.0859 22.0781 30.5938 21.6562L29.3281 20.6719L26.375 24.2578C25.8828 24.8906 24.8984 24.9609 24.3359 24.4688L22.1562 22.6406L21.4531 23.5547C20.2578 24.9609 18.1484 25.1719 16.7422 24.1172L10.4844 18.0703H7.25V6.75H9.92188L14.0703 2.60156C14.2812 2.39062 14.6328 2.25 14.9141 2.25H19.7656C19.8359 2.46094 19.8359 2.32031 19.8359 2.46094L15.6875 6.25781C13.7188 8.08594 13.6484 11.1797 15.4062 13.0781C16.3906 14.2031 19.5547 15.8906 22.2266 13.4297L23.8438 11.9531L32.6328 19.125C33.125 19.4766 33.1953 20.1797 32.8438 20.6719ZM38.75 18.0703H34.6719C34.5312 17.7891 34.3203 17.5781 34.1094 17.3672L25.5312 10.4062L27.5 8.57812C27.9922 8.15625 27.9922 7.45312 27.5703 6.96094C27.1484 6.53906 26.4453 6.46875 25.9531 6.89062L20.6797 11.7422C19.6953 12.6562 18.0078 12.5859 17.0938 11.6016C16.1094 10.5469 16.1797 8.92969 17.2344 7.94531L23.0703 2.60156C23.2812 2.39062 23.5625 2.32031 23.8438 2.32031H30.9453C31.2266 2.32031 31.5078 2.39062 31.7188 2.60156L36.0078 6.75H38.75V18.0703ZM44.375 15.75C43.7422 15.75 43.25 16.3125 43.25 16.875C43.25 17.5078 43.7422 18 44.375 18C44.9375 18 45.5 17.5078 45.5 16.875C45.5 16.2422 44.9375 15.75 44.375 15.75Z" fill="#009D41"/>
</svg>
