<svg width="42" height="33" viewBox="0 0 42 33" fill="none" xmlns="http://www.w3.org/2000/svg">
<path d="M37.875 0.75H4.125C2.22656 0.75 0.75 2.29688 0.75 4.125V28.875C0.75 30.7734 2.22656 32.25 4.125 32.25H37.875C39.7031 32.25 41.25 30.7734 41.25 28.875V4.125C41.25 2.29688 39.7031 0.75 37.875 0.75ZM4.125 3H37.875C38.4375 3 39 3.5625 39 4.125V7.5H3V4.125C3 3.5625 3.49219 3 4.125 3ZM37.875 30H4.125C3.49219 30 3 29.5078 3 28.875V14.25H39V28.875C39 29.5078 38.4375 30 37.875 30ZM14.25 24.0938C14.25 23.6719 13.8281 23.25 13.4062 23.25H8.34375C7.85156 23.25 7.5 23.6719 7.5 24.0938V24.6562C7.5 25.1484 7.85156 25.5 8.34375 25.5H13.4062C13.8281 25.5 14.25 25.1484 14.25 24.6562V24.0938ZM27.75 24.0938C27.75 23.6719 27.3281 23.25 26.9062 23.25H17.3438C16.8516 23.25 16.5 23.6719 16.5 24.0938V24.6562C16.5 25.1484 16.8516 25.5 17.3438 25.5H26.9062C27.3281 25.5 27.75 25.1484 27.75 24.6562V24.0938Z" fill="#009D41"/>
</svg>
