<svg width="17" height="16" viewBox="0 0 17 16" fill="none" xmlns="http://www.w3.org/2000/svg">
<path d="M15.875 0.71875L12.9375 0.0625C12.25 -0.09375 11.5625 0.25 11.3125 0.875L9.9375 4.0625C9.6875 4.625 9.84375 5.3125 10.3438 5.71875L11.5938 6.75C10.7188 8.375 9.34375 9.71875 7.71875 10.625L6.6875 9.375C6.28125 8.875 5.59375 8.71875 5.03125 8.96875L1.84375 10.3125C1.21875 10.5938 0.875 11.2812 1.03125 11.9688L1.6875 14.9062C1.84375 15.5625 2.4375 16 3.09375 16C10.75 16 17 9.8125 17 2.125C17 1.46875 16.5312 0.875 15.875 0.71875ZM3.15625 14.5L2.5 11.6875L5.5625 10.375L7.3125 12.5C10.4062 11.0312 12 9.4375 13.4688 6.34375L11.3438 4.59375L12.6562 1.53125L15.5 2.1875C15.4688 8.96875 9.9375 14.4688 3.15625 14.5Z" fill="#F79143"/>
</svg>
