<svg width="60" height="59" viewBox="0 0 60 59" fill="none" xmlns="http://www.w3.org/2000/svg">
<path d="M43.4766 27.3906L22.8516 14.8516C20.9766 13.9141 18.75 15.2031 18.75 17.3125V41.6875C18.75 43.9141 20.9766 45.2031 22.8516 44.1484L43.4766 32.3125C45.4688 31.2578 45.4688 28.5625 43.4766 27.3906ZM59.0625 29.5C59.0625 13.4453 46.0547 0.4375 30 0.4375C13.9453 0.4375 0.9375 13.4453 0.9375 29.5C0.9375 45.5547 13.9453 58.5625 30 58.5625C46.0547 58.5625 59.0625 45.5547 59.0625 29.5ZM6.5625 29.5C6.5625 16.6094 16.9922 6.0625 30 6.0625C42.8906 6.0625 53.4375 16.6094 53.4375 29.5C53.4375 42.5078 42.8906 52.9375 30 52.9375C16.9922 52.9375 6.5625 42.5078 6.5625 29.5Z" fill="white" fill-opacity="0.8"/>
</svg>
