<svg width="46" height="37" viewBox="0 0 46 37" fill="none" xmlns="http://www.w3.org/2000/svg">
<path d="M44.4453 21.1719C45.7812 19.9062 45.7812 17.7266 44.4453 16.3906L29.6094 1.55469C29.0469 0.992188 27.9922 0.5 27.2188 0.5H23.5625L25.8125 2.75H27.2188C27.4297 2.75 27.7812 2.96094 27.9922 3.10156L42.8984 18.0078C43.3203 18.4297 43.3203 19.1328 42.8984 19.625L28.5547 33.9688C28.0625 34.3906 27.3594 34.3906 26.9375 33.9688L26.7969 33.8281L25.25 35.4453L25.3203 35.5156C26.6562 36.8516 28.8359 36.8516 30.1016 35.5156L44.4453 21.1719ZM18.2188 2.75C18.4297 2.75 18.7812 2.96094 18.9922 3.10156L33.8984 18.0078C34.3203 18.4297 34.3203 19.1328 33.8984 19.625L19.5547 33.9688C19.0625 34.3906 18.3594 34.3906 17.9375 33.9688L3.03125 19.0625C2.82031 18.8516 2.75 18.5703 2.75 18.2891V3.875C2.75 3.3125 3.24219 2.75 3.875 2.75H18.2188ZM18.2188 0.5H3.875C1.97656 0.5 0.5 2.04688 0.5 3.875V18.2891C0.5 19.0625 0.921875 20.1172 1.48438 20.6797L16.3203 35.5156C17.6562 36.8516 19.8359 36.8516 21.1016 35.5156L35.4453 21.1719C36.7812 19.9062 36.7812 17.7266 35.4453 16.3906L20.6094 1.55469C20.0469 0.992188 18.9922 0.5 18.2188 0.5ZM10.625 9.21875C11.3984 9.21875 12.0312 9.85156 12.0312 10.625C12.0312 11.4688 11.3984 12.0312 10.625 12.0312C9.78125 12.0312 9.21875 11.4688 9.21875 10.625C9.21875 9.85156 9.78125 9.21875 10.625 9.21875ZM10.625 7.25C8.72656 7.25 7.25 8.79688 7.25 10.625C7.25 12.5234 8.72656 14 10.625 14C12.4531 14 14 12.5234 14 10.625C14 8.79688 12.4531 7.25 10.625 7.25Z" fill="#009D41"/>
</svg>
