<svg width="15" height="15" viewBox="0 0 15 15" fill="none" xmlns="http://www.w3.org/2000/svg">
<path d="M7.5 0.109375C3.48633 0.109375 0.234375 3.36133 0.234375 7.375C0.234375 11.3887 3.48633 14.6406 7.5 14.6406C11.5137 14.6406 14.7656 11.3887 14.7656 7.375C14.7656 3.36133 11.5137 0.109375 7.5 0.109375ZM7.5 13.2344C4.24805 13.2344 1.64062 10.627 1.64062 7.375C1.64062 4.15234 4.24805 1.51562 7.5 1.51562C10.7227 1.51562 13.3594 4.15234 13.3594 7.375C13.3594 10.627 10.7227 13.2344 7.5 13.2344ZM9.28711 10.1875C9.46289 10.3047 9.66797 10.2754 9.78516 10.0996L10.3418 9.36719C10.459 9.19141 10.4297 8.98633 10.2539 8.86914L8.32031 7.43359V3.27344C8.32031 3.09766 8.14453 2.92188 7.96875 2.92188H7.03125C6.82617 2.92188 6.67969 3.09766 6.67969 3.27344V8.10742C6.67969 8.19531 6.70898 8.3125 6.79688 8.37109L9.28711 10.1875Z" fill="#009D41"/>
</svg>
